<svg xmlns="http://www.w3.org/2000/svg" viewBox="0 0 120.73 75.73"><defs><style>.cls-1{fill:#084b7a;stroke:#faf9f4;stroke-miterlimit:10;stroke-width:0.73px;}</style></defs><g id="Capa_2" data-name="Capa 2"><g id="Capa_1-2" data-name="Capa 1"><path class="cls-1" d="M117.87,43,102.7,31.45a4,4,0,0,0-2.4-.81,3.92,3.92,0,0,0-3.94,3.89v2.79H60.3a1.76,1.76,0,1,0,0,3.51h8.29v14.3H55.2a27.28,27.28,0,0,0-7.27-26.51,27.88,27.88,0,0,0-5.27-4.06,15.87,15.87,0,0,0,2.14-8,16.56,16.56,0,0,0-33.11,0,15.84,15.84,0,0,0,2.1,7.91A28,28,0,0,0,8.5,28.57a27.08,27.08,0,0,0,.06,38.77,28.29,28.29,0,0,0,39.42,0,27,27,0,0,0,6-8.75H76.72a1.76,1.76,0,1,0,0-3.51H72.11V40.83H87.86v14.3H83.55a1.76,1.76,0,1,0,0,3.51H96.36v2.79a3.92,3.92,0,0,0,3.94,3.89,4,4,0,0,0,2.4-.81L117.87,53a6.25,6.25,0,0,0,0-10ZM28.24,3.88a12.89,12.89,0,0,1,13,12.71A12.38,12.38,0,0,1,39.53,23a26.52,26.52,0,0,0-3.84-1.35V15.49a4,4,0,0,0-4-4H24.83a4,4,0,0,0-4,4v6.07a28.11,28.11,0,0,0-3.87,1.34,12.33,12.33,0,0,1-1.72-6.31A12.89,12.89,0,0,1,28.24,3.88Zm3.94,11.61v5.39a28.49,28.49,0,0,0-4-.28,27.67,27.67,0,0,0-3.85.26V15.49a.5.5,0,0,1,.52-.48h6.83A.5.5,0,0,1,32.18,15.49Zm13.34,49.4A24.74,24.74,0,0,1,11,64.83,23.56,23.56,0,0,1,11,31.08a24.75,24.75,0,0,1,34.49.05,23.57,23.57,0,0,1,.06,33.76Zm70.22-14.72L100.57,61.72a.48.48,0,0,1-.27.09.4.4,0,0,1-.42-.38V56.89a1.76,1.76,0,0,0-1.76-1.76H91.38V40.83h6.74a1.75,1.75,0,0,0,1.76-1.75V34.53a.39.39,0,0,1,.42-.37.42.42,0,0,1,.27.09l15.17,11.54a2.72,2.72,0,0,1,0,4.38Z"/><path class="cls-1" d="M42.84,35.49A1.76,1.76,0,0,0,42.47,38a16.83,16.83,0,0,1-1.78,22.2,17.84,17.84,0,0,1-24.85,0,17,17,0,0,1,0-24.3,17.93,17.93,0,0,1,22.78-1.69,1.76,1.76,0,1,0,2.05-2.86,21.4,21.4,0,0,0-14-3.93,21.16,21.16,0,0,0-13.35,6,20.49,20.49,0,0,0,.05,29.32,21.37,21.37,0,0,0,29.78,0,20.48,20.48,0,0,0,2.14-26.8A1.76,1.76,0,0,0,42.84,35.49Z"/><path class="cls-1" d="M38.6,37.84a1.75,1.75,0,0,0-2.48,0l-5.68,5.55a5.08,5.08,0,1,0,3,4.61,5,5,0,0,0-.48-2.14l5.64-5.51A1.77,1.77,0,0,0,38.6,37.84ZM28.24,49.56A1.58,1.58,0,1,1,29.9,48,1.62,1.62,0,0,1,28.24,49.56Z"/></g></g></svg>