<svg xmlns="http://www.w3.org/2000/svg" viewBox="0 0 120.48 90.09"><defs><style>.cls-1{fill:#084b7a;stroke:#faf9f4;stroke-miterlimit:10;stroke-width:0.48px;}</style></defs><g id="Capa_2" data-name="Capa 2"><g id="Capa_1-2" data-name="Capa 1"><path class="cls-1" d="M17.11,67.79a1.39,1.39,0,0,0,1.53-1.19V5.66c0-1.68,1.76-3,3.91-3H94.4a1.39,1.39,0,0,0,1.53-1.19A1.39,1.39,0,0,0,94.4.24H22.55c-3.84,0-7,2.43-7,5.42V66.6A1.4,1.4,0,0,0,17.11,67.79Z"/><path class="cls-1" d="M113.7,19.54a1.39,1.39,0,0,0,1.53-1.19V5.66c0-3-3.12-5.42-7-5.42h-1.81c-3.85,0-7,2.43-7,5.42V84.43c0,1.68-1.76,3-3.92,3a1.23,1.23,0,1,0,0,2.38c3.85,0,7-2.43,7-5.42V5.66c0-1.68,1.75-3,3.91-3h1.81c2.16,0,3.91,1.36,3.91,3v11.5h-4.56a1.39,1.39,0,0,0-1.53,1.19,1.39,1.39,0,0,0,1.53,1.19Z"/><path class="cls-1" d="M89.81,87.3a3.21,3.21,0,0,1-2.61-2.87V71.74a1.4,1.4,0,0,0-1.53-1.19H1.77A1.4,1.4,0,0,0,.24,71.74V84.43c0,3,3.13,5.42,7,5.42H89.3a1.39,1.39,0,0,0,1.53-1.19v-.24A1.25,1.25,0,0,0,89.81,87.3Zm-82.6.17c-2.15,0-3.91-1.36-3.91-3V72.93H84.14v11.5a4.6,4.6,0,0,0,1.2,3Z"/><path class="cls-1" d="M118.71,25.93h-10a1.39,1.39,0,0,0-1.53,1.19V60.5a1,1,0,0,0,0,.25l0,.07a.53.53,0,0,0,.08.17s0,0,0,0l5,8.12a1.64,1.64,0,0,0,1.38.68,1.62,1.62,0,0,0,1.38-.68l5-8.12s0,0,0,0a.89.89,0,0,0,.08-.17l0-.07a1,1,0,0,0,0-.25V27.12a1.39,1.39,0,0,0-1.53-1.19Zm-8.48,33.38V35h7V59.31Zm7-31v4.31h-7V28.31ZM113.7,65.87l-2.57-4.18h5.15Z"/><path class="cls-1" d="M60,25l1.35,3.23a1,1,0,0,0,.89.51h4.38c.91,0,1.29.9.55,1.31l-3.54,2a.65.65,0,0,0-.34.82l1.35,3.24c.28.66-.7,1.22-1.44.81l-3.54-2a1.13,1.13,0,0,0-1.1,0l-3.55,2c-.73.41-1.72-.15-1.44-.81l1.36-3.24a.67.67,0,0,0-.34-.82l-3.55-2c-.73-.41-.35-1.31.55-1.31h4.38a.94.94,0,0,0,.89-.51L58.17,25A1,1,0,0,1,60,25Z"/><path class="cls-1" d="M81,27.06a3.48,3.48,0,0,1-1.14-2.73c.19-3-2.36-5.73-6.08-6.51a5.33,5.33,0,0,1-3-1.69c-2.11-2.5-6.25-3.55-9.84-2.48h0a6.65,6.65,0,0,1-3.7,0c-3.6-1.07-7.74,0-9.84,2.48a5.33,5.33,0,0,1-3,1.69c-3.72.78-6.28,3.52-6.09,6.51a3.45,3.45,0,0,1-1.14,2.73,5.37,5.37,0,0,0,0,8,3.45,3.45,0,0,1,1.14,2.73c-.19,3,2.37,5.73,6.09,6.51a6.4,6.4,0,0,1,1.54.55V63.35a1.22,1.22,0,0,0,.87,1.07,1.88,1.88,0,0,0,1.62-.15l10.65-6.68L69.7,64.27a1.78,1.78,0,0,0,1,.26,1.83,1.83,0,0,0,.66-.11,1.22,1.22,0,0,0,.87-1.07V44.89a6.32,6.32,0,0,1,1.55-.55c3.71-.78,6.27-3.52,6.08-6.51A3.48,3.48,0,0,1,81,35.1a5.36,5.36,0,0,0,0-8ZM69.13,60.86,60,55.13a1.9,1.9,0,0,0-1.92,0L49,60.86V47.44l.21.12.15.09a4.82,4.82,0,0,0,.5.27h0a5.38,5.38,0,0,0,.55.24l.16.07.41.15.2.06.43.13.16,0,.6.13.11,0,.51.07.21,0,.43,0h.84l.63,0,.18,0,.46-.05.21,0,.45-.08.19,0a6.25,6.25,0,0,0,.62-.16,6.62,6.62,0,0,1,3.69,0c.22.07.43.12.65.17l.19,0,.49.09.18,0c.22,0,.44.06.66.07h0c.21,0,.42,0,.63,0h.15a9.1,9.1,0,0,0,.91,0h.1c.31,0,.62-.08.92-.13l.06,0a9.43,9.43,0,0,0,1.81-.54l.06,0c.27-.11.53-.24.79-.37l.09,0,.51-.3V60.86Zm9.45-27.25A5.51,5.51,0,0,0,76.77,38c.12,1.88-1.49,3.6-3.83,4.09A8.91,8.91,0,0,0,69,44l-.16.15a5.86,5.86,0,0,0-.6.62,4.64,4.64,0,0,1-.5.49l-.06.05a.27.27,0,0,1-.08.07,6.32,6.32,0,0,1-5.55.95,10.5,10.5,0,0,0-5.88,0,6.1,6.1,0,0,1-6.19-1.56,7.11,7.11,0,0,0-.6-.63L49.17,44a8.91,8.91,0,0,0-4-1.92c-2.34-.49-4-2.21-3.83-4.09a5.54,5.54,0,0,0-1.81-4.34,3.38,3.38,0,0,1,0-5.06,5.54,5.54,0,0,0,1.81-4.34c-.12-1.88,1.49-3.6,3.83-4.1a8.41,8.41,0,0,0,4.75-2.68,6.08,6.08,0,0,1,6.19-1.56,10.5,10.5,0,0,0,5.88,0,6.1,6.1,0,0,1,6.19,1.56,8.41,8.41,0,0,0,4.75,2.68c2.34.5,4,2.22,3.83,4.1a5.51,5.51,0,0,0,1.81,4.34,3.38,3.38,0,0,1,0,5.06Z"/></g></g></svg>