<svg xmlns="http://www.w3.org/2000/svg" viewBox="0 0 120.47 87.45"><defs><style>.cls-1{fill:#084b7a;stroke:#faf9f4;stroke-miterlimit:10;stroke-width:0.47px;}</style></defs><g id="Capa_2" data-name="Capa 2"><g id="Capa_1-2" data-name="Capa 1"><path class="cls-1" d="M97.57,48.22l-9.63,9.63a5.62,5.62,0,0,0-.41-.44L75.09,45a1.76,1.76,0,1,0-2.49,2.5L85,59.9a2.74,2.74,0,0,1-3.88,3.88l-6.91-6.92a1.77,1.77,0,0,0-2.49,0,1.76,1.76,0,0,0,0,2.49l6.91,6.92h0a2.74,2.74,0,0,1-3.88,3.88l-6.91-6.92a1.77,1.77,0,0,0-2.49,0,1.76,1.76,0,0,0,0,2.49l6.91,6.92a2.75,2.75,0,0,1,0,3.88,2.75,2.75,0,0,1-3.88,0L61.51,69.6A1.76,1.76,0,0,0,59,72.1L65.93,79a2.75,2.75,0,0,1,0,3.88,2.75,2.75,0,0,1-3.88,0l-4.48-4.48a6.19,6.19,0,0,0-.93-7.56l-.1-.11a6.21,6.21,0,0,0-5-1.78,6.19,6.19,0,0,0-4.69-5.58,6.25,6.25,0,0,0,.41-2.23A6.18,6.18,0,0,0,41.07,55a6.29,6.29,0,0,0-2.68.6,6.18,6.18,0,0,0-10.33-2.69l-.72.73-.53-.53a4.44,4.44,0,0,1-1.32-3.19V45.29A1.77,1.77,0,0,0,25,44l-7.52-7.52,2.11-2.11a1.76,1.76,0,0,0-2.49-2.49l-2.83,2.83a1.38,1.38,0,0,1-1.94,0L3.24,25.69A1.76,1.76,0,0,0,.75,28.18l9.06,9.06a4.91,4.91,0,0,0,3.46,1.43,4.79,4.79,0,0,0,1.19-.15L22,46v3.86a8,8,0,0,0,2.36,5.68l.53.53-.59.59a6.2,6.2,0,0,0,4.37,10.57h.08v.08a6.18,6.18,0,0,0,6.19,6.19H35a6.16,6.16,0,0,0,6.18,6.26h.08a6.18,6.18,0,0,0,1.81,4.46l.11.1a6.17,6.17,0,0,0,8.75,0l3.3-3.3,4.35,4.35a6.26,6.26,0,0,0,10.69-4.54h.11a6.25,6.25,0,0,0,6.26-6.37h.11A6.27,6.27,0,0,0,83,68.21V68.1h.1a6.24,6.24,0,0,0,6.25-6.68l10.71-10.71a1.76,1.76,0,0,0-2.49-2.49ZM26.75,62.94a2.64,2.64,0,0,1,0-3.77l3.8-3.81a2.67,2.67,0,0,1,3.78,3.78l-3.81,3.8a2.67,2.67,0,0,1-3.77,0Zm8.15,7A2.67,2.67,0,0,1,33,65.44l3.81-3.81,2.36-2.37a2.67,2.67,0,0,1,4.56,1.89A2.65,2.65,0,0,1,43,63l-6.18,6.18A2.65,2.65,0,0,1,34.9,70Zm4.38,5.48a2.65,2.65,0,0,1,0-3.77l4.2-4.2a2.67,2.67,0,0,1,3.77,3.77l-4.2,4.2a2.67,2.67,0,0,1-3.77,0Zm10.14,6.37a2.67,2.67,0,0,1-3.77,0l-.11-.1a2.68,2.68,0,0,1,0-3.78l4.2-4.2h0l.52-.53a2.68,2.68,0,0,1,3.78,0l.1.11a2.67,2.67,0,0,1,0,3.77Z"/><path class="cls-1" d="M119.72,33.11a1.76,1.76,0,0,0-2.49,0l-6.6,6.6a.25.25,0,0,1-.34,0L87,17.42a.21.21,0,0,1-.08-.17.26.26,0,0,1,.07-.17L100.79,3.24A1.76,1.76,0,0,0,98.3.75L84.46,14.59a3.75,3.75,0,0,0-.32,4.94L77.8,25.74l-6-3.33a5.29,5.29,0,0,0-2.55-.66h-17L51,20.46a11.85,11.85,0,0,0-4.19-2.72L42.14,16,40,13.78a4.9,4.9,0,0,0-.73-6L32.17.75a1.76,1.76,0,0,0-2.49,2.49l7.07,7.07a1.38,1.38,0,0,1,0,1.94L22.38,26.61a1.76,1.76,0,0,0,0,2.49,1.8,1.8,0,0,0,1.25.52,1.76,1.76,0,0,0,1.24-.52L37.59,16.38l2.33,2.33a1.74,1.74,0,0,0,.62.4l5,1.92a8.34,8.34,0,0,1,2.89,1.86l-.31.28-6.7,6.7a7,7,0,0,0,9.45,10.41L56,36.11h5.28l6,6a1.79,1.79,0,0,0,1.25.51,1.76,1.76,0,0,0,1.24-3L65.43,35.3a1.81,1.81,0,0,0,.27-.95,1.76,1.76,0,0,0-1.76-1.76H55.35a1.75,1.75,0,0,0-1.12.4l-5.56,4.57A3.52,3.52,0,0,1,44,32.36l6.7-6.7a1.33,1.33,0,0,1,.94-.39H69.28a1.78,1.78,0,0,1,.84.22l6.6,3.68a2.57,2.57,0,0,0,3-.4L86.65,22l19,18.14-2.76,2.77a1.76,1.76,0,0,0,2.49,2.49l2.84-2.85a3.81,3.81,0,0,0,2.25.74,3.75,3.75,0,0,0,2.66-1.09l6.6-6.6a1.77,1.77,0,0,0,0-2.49Z"/></g></g></svg>