<svg xmlns="http://www.w3.org/2000/svg" viewBox="0 0 120.55 136.39"><defs><style>.cls-1{fill:#084b7a;stroke:#faf9f4;stroke-miterlimit:10;stroke-width:0.55px;}</style></defs><g id="Capa_2" data-name="Capa 2"><g id="Capa_1-2" data-name="Capa 1"><path class="cls-1" d="M102.16.28h-77a.7.7,0,0,0-.14,0,2.34,2.34,0,0,0-1.46.63L1,23.58a2.27,2.27,0,0,0-.45.66l-.08.21A2.94,2.94,0,0,0,.3,25c0,.05,0,.09,0,.14V133.85a2.26,2.26,0,0,0,2.26,2.26h99.62a2.27,2.27,0,0,0,2.27-2.26V84H99.9v47.54H4.81V27.44H25.19a2.26,2.26,0,0,0,2.26-2.26V4.81H99.9V43.29h4.53V2.54A2.27,2.27,0,0,0,102.16.28ZM22.93,22.92H8L22.93,8Z"/><path class="cls-1" d="M93.11,52.35V36.5a2.27,2.27,0,0,0-2.27-2.26h-77a2.26,2.26,0,0,0-2.26,2.26V90.83a2.27,2.27,0,0,0,2.26,2.27H52.36V88.57H16.13V78.25L38.7,57.74,57.55,76.59a2.26,2.26,0,0,0,3.05.14L72.69,66.64l1.14,1,3-3.39L74.22,62a2.26,2.26,0,0,0-2.94,0l-12,10L40.36,53A2.25,2.25,0,0,0,37.24,53L16.13,72.13V38.76H88.58V52.35Z"/><path class="cls-1" d="M52.36,52.35a9.06,9.06,0,1,0,9-9.06A9,9,0,0,0,52.36,52.35Zm13.58,0a4.53,4.53,0,1,1-4.53-4.53A4.53,4.53,0,0,1,65.94,52.35Z"/><path class="cls-1" d="M28.68,73.57l6.8-6.79,3.2,3.2-6.8,6.8Z"/><path class="cls-1" d="M28,117.32a17.52,17.52,0,0,0,15.75,9.74,17.76,17.76,0,0,0,12.45-5.16l1.17-1.17a10.21,10.21,0,0,0,2.94-7.86A136.75,136.75,0,0,0,99.2,79.51l19.47-24.33a7.32,7.32,0,0,0-10.29-10.29L84.05,64.36A137,137,0,0,0,50.7,103.27a10.2,10.2,0,0,0-7.87,2.94l-5.93,5.93a4.53,4.53,0,0,1-3.2,1.33h-4a2.27,2.27,0,0,0-2,3.28ZM86.87,67.9,111.2,48.43a2.79,2.79,0,0,1,3.93,3.93L95.66,76.69A133,133,0,0,1,83,90.39l-9.86-9.86A132.93,132.93,0,0,1,86.87,67.9Zm-16.75,16,9.55,9.56a132.37,132.37,0,0,1-20.41,14.8l-1.43-1.42a6.89,6.89,0,0,0-.49-.61c-.19-.18-.4-.32-.6-.49l-1.42-1.42A131.85,131.85,0,0,1,70.13,83.88Zm-30,31.47L46,109.42a5.89,5.89,0,0,1,7.56-.47L54.66,110a5.68,5.68,0,0,1-.51,7.49L53,118.69a13.18,13.18,0,0,1-9.26,3.84A13,13,0,0,1,33.82,118a9.13,9.13,0,0,0,6.28-2.65Z"/></g></g></svg>