<svg xmlns="http://www.w3.org/2000/svg" viewBox="0 0 120.54 205.41"><defs><style>.cls-1{fill:#084b7a;stroke:#faf9f4;stroke-miterlimit:10;stroke-width:0.54px;}</style></defs><g id="Capa_2" data-name="Capa 2"><g id="Capa_1-2" data-name="Capa 1"><path class="cls-1" d="M108.56.27H12A11.71,11.71,0,0,0,.27,12V193.44A11.71,11.71,0,0,0,12,205.15h96.58a11.71,11.71,0,0,0,11.71-11.71V12A11.71,11.71,0,0,0,108.56.27ZM6.12,32.46H114.41V161.24H6.12ZM12,6.12h96.58A5.85,5.85,0,0,1,114.41,12V26.61H6.12V12A5.86,5.86,0,0,1,12,6.12Zm96.58,193.17H12a5.85,5.85,0,0,1-5.86-5.85V167.1H114.41v26.34A5.85,5.85,0,0,1,108.56,199.29Z"/><path class="cls-1" d="M60.27,172.4a10.8,10.8,0,1,0,10.79,10.79A10.8,10.8,0,0,0,60.27,172.4Zm4.94,10.8a4.94,4.94,0,1,1-4.94-4.94,4.94,4.94,0,0,1,4.94,4.94Z"/><path class="cls-1" d="M48.56,20H72a2.93,2.93,0,0,0,0-5.85H48.56a2.93,2.93,0,1,0,0,5.85Z"/></g></g></svg>