<svg xmlns="http://www.w3.org/2000/svg" viewBox="0 0 120.37 104.2"><defs><style>.cls-1{fill:#084b7a;stroke:#faf9f4;stroke-miterlimit:10;stroke-width:0.37px;}</style></defs><g id="Capa_2" data-name="Capa 2"><g id="Capa_1-2" data-name="Capa 1"><path class="cls-1" d="M112.92,14.14h-5.27V5.58A5.4,5.4,0,0,0,102.26.19H98.47a5.4,5.4,0,0,0-5.39,5.39v8.56H80.86V5.58A5.39,5.39,0,0,0,75.47.19H71.69A5.39,5.39,0,0,0,66.3,5.58v8.56H54.07V5.58A5.39,5.39,0,0,0,48.68.19H44.91a5.4,5.4,0,0,0-5.4,5.39v8.56H27.29V5.58A5.4,5.4,0,0,0,21.9.19H18.12a5.39,5.39,0,0,0-5.39,5.39v8.56H7.45A7.26,7.26,0,0,0,.19,21.4V97.69A6.34,6.34,0,0,0,6.51,104H113.86a6.35,6.35,0,0,0,6.33-6.33V21.4A7.27,7.27,0,0,0,112.92,14.14ZM96.37,5.58a2.1,2.1,0,0,1,2.1-2.11h3.79a2.12,2.12,0,0,1,2.11,2.11v8.56h-8Zm-26.79,0a2.1,2.1,0,0,1,2.11-2.11h3.78a2.11,2.11,0,0,1,2.11,2.11v8.56h-8Zm-26.79,0A2.11,2.11,0,0,1,44.9,3.47h3.78a2.1,2.1,0,0,1,2.11,2.11v8.56h-8ZM16,5.58a2.1,2.1,0,0,1,2.11-2.11H21.9A2.11,2.11,0,0,1,24,5.58v8.56H16ZM3.47,21.4a4,4,0,0,1,4-4H112.92a4,4,0,0,1,4,4V32.07H3.47ZM116.91,97.69a3.07,3.07,0,0,1-3,3H6.51a3.05,3.05,0,0,1-3-3V35.35H116.91Z"/><path class="cls-1" d="M13.08,55.91H23.14a3.52,3.52,0,0,0,3.52-3.52V45a3.52,3.52,0,0,0-3.52-3.51H13.08A3.52,3.52,0,0,0,9.56,45v7.43A3.52,3.52,0,0,0,13.08,55.91ZM12.84,45a.23.23,0,0,1,.24-.23H23.14a.23.23,0,0,1,.24.23v7.43a.24.24,0,0,1-.24.24H13.08a.24.24,0,0,1-.24-.24Z"/><path class="cls-1" d="M41.13,55.91H51.19a3.52,3.52,0,0,0,3.52-3.52V45a3.52,3.52,0,0,0-3.52-3.51H41.13A3.52,3.52,0,0,0,37.61,45v7.43A3.52,3.52,0,0,0,41.13,55.91ZM40.89,45a.23.23,0,0,1,.24-.23H51.19a.23.23,0,0,1,.24.23v7.43a.24.24,0,0,1-.24.24H41.13a.24.24,0,0,1-.24-.24Z"/><path class="cls-1" d="M69.18,55.91H79.24a3.51,3.51,0,0,0,3.52-3.52V45a3.51,3.51,0,0,0-3.52-3.51H69.18A3.52,3.52,0,0,0,65.66,45v7.43A3.53,3.53,0,0,0,69.18,55.91ZM69,45a.23.23,0,0,1,.23-.23H79.24a.23.23,0,0,1,.24.23v7.43a.24.24,0,0,1-.24.24H69.18a.23.23,0,0,1-.23-.24Z"/><path class="cls-1" d="M97.23,55.91H107.3a3.51,3.51,0,0,0,3.51-3.52V45a3.51,3.51,0,0,0-3.51-3.51H97.23A3.51,3.51,0,0,0,93.72,45v7.43A3.51,3.51,0,0,0,97.23,55.91ZM97,45a.23.23,0,0,1,.23-.23H107.3a.23.23,0,0,1,.23.23v7.43a.24.24,0,0,1-.23.24H97.23a.23.23,0,0,1-.23-.24Z"/><path class="cls-1" d="M13.08,75.28H23.14a3.53,3.53,0,0,0,3.52-3.52V64.33a3.53,3.53,0,0,0-3.52-3.52H13.08a3.53,3.53,0,0,0-3.52,3.52v7.43A3.53,3.53,0,0,0,13.08,75.28Zm-.24-11a.24.24,0,0,1,.24-.24H23.14a.24.24,0,0,1,.24.24v7.43a.23.23,0,0,1-.24.23H13.08a.23.23,0,0,1-.24-.23Z"/><path class="cls-1" d="M41.13,75.28H51.19a3.53,3.53,0,0,0,3.52-3.52V64.33a3.53,3.53,0,0,0-3.52-3.52H41.13a3.53,3.53,0,0,0-3.52,3.52v7.43A3.53,3.53,0,0,0,41.13,75.28Zm-.24-11a.24.24,0,0,1,.24-.24H51.19a.24.24,0,0,1,.24.24v7.43a.23.23,0,0,1-.24.23H41.13a.23.23,0,0,1-.24-.23Z"/><path class="cls-1" d="M69.18,75.28H79.24a3.53,3.53,0,0,0,3.52-3.52V64.33a3.52,3.52,0,0,0-3.52-3.52H69.18a3.53,3.53,0,0,0-3.52,3.52v7.43A3.54,3.54,0,0,0,69.18,75.28Zm-.23-11a.23.23,0,0,1,.23-.24H79.24a.24.24,0,0,1,.24.24v7.43a.23.23,0,0,1-.24.23H69.18a.23.23,0,0,1-.23-.23Z"/><path class="cls-1" d="M97.23,75.28H107.3a3.52,3.52,0,0,0,3.51-3.52V64.33a3.52,3.52,0,0,0-3.51-3.52H97.23a3.52,3.52,0,0,0-3.51,3.52v7.43A3.52,3.52,0,0,0,97.23,75.28Zm-.23-11a.23.23,0,0,1,.23-.24H107.3a.23.23,0,0,1,.23.24v7.43a.23.23,0,0,1-.23.23H97.23a.23.23,0,0,1-.23-.23Z"/><path class="cls-1" d="M13.08,94.64H23.14a3.52,3.52,0,0,0,3.52-3.51V83.7a3.52,3.52,0,0,0-3.52-3.52H13.08A3.52,3.52,0,0,0,9.56,83.7v7.43A3.52,3.52,0,0,0,13.08,94.64ZM12.84,83.7a.24.24,0,0,1,.24-.24H23.14a.24.24,0,0,1,.24.24v7.43a.23.23,0,0,1-.24.23H13.08a.23.23,0,0,1-.24-.23Z"/><path class="cls-1" d="M41.13,94.64H51.19a3.52,3.52,0,0,0,3.52-3.51V83.7a3.52,3.52,0,0,0-3.52-3.52H41.13a3.52,3.52,0,0,0-3.52,3.52v7.43A3.52,3.52,0,0,0,41.13,94.64ZM40.89,83.7a.24.24,0,0,1,.24-.24H51.19a.24.24,0,0,1,.24.24v7.43a.23.23,0,0,1-.24.23H41.13a.23.23,0,0,1-.24-.23Z"/><path class="cls-1" d="M81.58,81.07a1.64,1.64,0,0,0-2.3.31l-6.85,9-3.84-4.85a1.64,1.64,0,0,0-2.57,2L71.17,94a1.67,1.67,0,0,0,1.29.62h0A1.62,1.62,0,0,0,73.76,94l8.12-10.63a1.63,1.63,0,0,0-.3-2.29Z"/><path class="cls-1" d="M109.63,81.07a1.64,1.64,0,0,0-2.3.31l-6.84,9-3.84-4.85a1.65,1.65,0,0,0-2.31-.27,1.63,1.63,0,0,0-.26,2.3L99.23,94a1.66,1.66,0,0,0,1.29.62h0a1.63,1.63,0,0,0,1.29-.64l8.12-10.63a1.63,1.63,0,0,0-.31-2.29Z"/></g></g></svg>