<svg xmlns="http://www.w3.org/2000/svg" viewBox="0 0 120.75 131.66"><defs><style>.cls-1{fill:#084b7a;stroke:#faf9f4;stroke-miterlimit:10;stroke-width:0.75px;}</style></defs><g id="Capa_2" data-name="Capa 2"><g id="Capa_1-2" data-name="Capa 1"><path class="cls-1" d="M99.92,90.38a20.37,20.37,0,0,0-15.39,7L40.28,72.16a20.53,20.53,0,0,0,0-12.66L84.52,34.27a20.44,20.44,0,1,0-5-13.44,20.08,20.08,0,0,0,1,6.33L36.23,52.39a20.45,20.45,0,1,0,0,26.88l44.25,25.22a20.19,20.19,0,0,0-1,6.34A20.46,20.46,0,1,0,99.92,90.38Zm0-81.82A12.27,12.27,0,1,1,87.65,20.83,12.28,12.28,0,0,1,99.92,8.56ZM20.83,78.1A12.27,12.27,0,1,1,33.1,65.83,12.28,12.28,0,0,1,20.83,78.1Zm79.09,45a12.27,12.27,0,1,1,12.27-12.27A12.28,12.28,0,0,1,99.92,123.1Z"/></g></g></svg>