<svg xmlns="http://www.w3.org/2000/svg" viewBox="0 0 120.73 120.73"><defs><style>.cls-1{fill:#084b7a;stroke:#faf9f4;stroke-miterlimit:10;stroke-width:0.73px;}</style></defs><g id="Capa_2" data-name="Capa 2"><g id="Capa_1-2" data-name="Capa 1"><path class="cls-1" d="M51.75,73.51a3,3,0,0,0,2.12.87A3,3,0,0,0,56,73.51l22-22a3,3,0,1,0-4.24-4.24L53.84,67.19l-6.92-6.93a3,3,0,1,0-4.23,4.24Z"/><path class="cls-1" d="M28.7,16a3.18,3.18,0,0,0,1.66-.5,3,3,0,1,0-3.33-5,3,3,0,0,0-.82,4.13A2.94,2.94,0,0,0,28.7,16Z"/><path class="cls-1" d="M20.06,23a3,3,0,0,0,2.11-.87,3,3,0,1,0-2.11.87Z"/><path class="cls-1" d="M38.53,10.67a3.17,3.17,0,0,0,1.15-.22,3,3,0,1,0-1.15.22Z"/><path class="cls-1" d="M11.29,31.16a2.92,2.92,0,0,0,1.67.5,3,3,0,0,0,2.49-1.32,3,3,0,0,0-.82-4.13,3,3,0,0,0-4.16.82A3,3,0,0,0,11.29,31.16Z"/><path class="cls-1" d="M6.54,41.29a3.09,3.09,0,0,0,1.14.23,3,3,0,1,0-1.14-.23Z"/><path class="cls-1" d="M49.21,7.43a3.66,3.66,0,0,0,.57,0A3,3,0,1,0,46.27,5,3,3,0,0,0,49.21,7.43Z"/><path class="cls-1" d="M3.85,52.17a4,4,0,0,0,.57,0,3,3,0,0,0,2.94-2.41,3,3,0,1,0-5.85-1.17h0A3,3,0,0,0,3.85,52.17Z"/><path class="cls-1" d="M102.79,17.94A59.6,59.6,0,0,0,60.36.36a3,3,0,0,0,0,6,54,54,0,1,1-54,54,3,3,0,0,0-6,0,60,60,0,0,0,102.43,42.43,60,60,0,0,0,0-84.85Z"/></g></g></svg>