<svg xmlns="http://www.w3.org/2000/svg" viewBox="0 0 121 153.6"><defs><style>.cls-1{fill:#084b7a;stroke:#faf9f4;stroke-miterlimit:10;}</style></defs><g id="Capa_2" data-name="Capa 2"><g id="Capa_1-2" data-name="Capa 1"><path class="cls-1" d="M49.84,39.89A30.29,30.29,0,1,0,80.13,70.18h0A30.33,30.33,0,0,0,49.84,39.89Zm0,54.08A23.8,23.8,0,1,1,73.63,70.18h0A23.81,23.81,0,0,1,49.84,94Z"/><path class="cls-1" d="M83.58.5a3.25,3.25,0,0,0,0,6.5A30.45,30.45,0,0,1,114,37.43a3.25,3.25,0,1,0,6.5,0A37,37,0,0,0,83.58.5Z"/><path class="cls-1" d="M83.58,12.48a3.25,3.25,0,0,0,0,6.5A18.46,18.46,0,0,1,102,37.43a3.25,3.25,0,0,0,6.5,0A25,25,0,0,0,83.58,12.48Z"/><path class="cls-1" d="M95.79,37.43a12.2,12.2,0,0,0-20.13-9.29A49.32,49.32,0,0,0,.5,70.18c0,17.8,8,37.06,23.73,57.26a178.24,178.24,0,0,0,23.53,24.9,3.25,3.25,0,0,0,4.17,0,178.17,178.17,0,0,0,23.52-24.9C91.2,107.25,99.18,88,99.18,70.18a49.27,49.27,0,0,0-6.56-24.57,12.16,12.16,0,0,0,3.17-8.18ZM83.58,31.71a5.72,5.72,0,1,1-5.71,5.73,5.63,5.63,0,0,1,1-3.2l0,0h0A5.71,5.71,0,0,1,83.58,31.71ZM49.84,145.51C41,137.48,7,104.41,7,70.18A42.83,42.83,0,0,1,72,33.53,12.19,12.19,0,0,0,87.12,49.1a42.79,42.79,0,0,1,5.56,21.08c0,34.19-34,67.3-42.84,75.34Z"/></g></g></svg>