<?xml version="1.0" encoding="utf-8"?>
<!-- Generator: Adobe Illustrator 23.1.1, SVG Export Plug-In . SVG Version: 6.00 Build 0)  -->
<svg version="1.1" id="Capa_1" xmlns="http://www.w3.org/2000/svg" xmlns:xlink="http://www.w3.org/1999/xlink" x="0px" y="0px"
	 viewBox="0 0 25 28" style="enable-background:new 0 0 25 28;" xml:space="preserve">
<style type="text/css">
	.st0{fill:none;stroke:#6D6D6D;stroke-width:0.25;stroke-miterlimit:10;}
</style>
<path class="st0" d="M22.4,23.7L22.4,23.7L22.4,23.7l0-7.2c0-3.5-0.8-6.2-4.9-6.2c-2,0-3.3,1.1-3.9,2.1h-0.1v-1.8H9.7v13.1h4.1v-6.5
	c0-1.7,0.3-3.4,2.4-3.4c2.1,0,2.1,2,2.1,3.5v6.4L22.4,23.7z"/>
<path class="st0" d="M3.1,10.6h4.1v13.1H3.1V10.6z"/>
<path class="st0" d="M5.1,4C3.8,4,2.8,5.1,2.8,6.4s1.1,2.4,2.4,2.4s2.4-1.1,2.4-2.4C7.5,5.1,6.4,4,5.1,4z"/>
</svg>
