<svg xmlns="http://www.w3.org/2000/svg" viewBox="0 0 23.9 14.94"><defs><style>.cls-1{fill:#282828;}</style></defs><g id="Capa_2" data-name="Capa 2"><g id="Capa_1-2" data-name="Capa 1"><path class="cls-1" d="M23.4,0H.5A.5.5,0,0,0,0,.5.5.5,0,0,0,.5,1H23.4a.5.5,0,0,0,.5-.5A.5.5,0,0,0,23.4,0Z"/><path class="cls-1" d="M23.4,7H.5a.5.5,0,0,0-.5.5A.5.5,0,0,0,.5,8H23.4a.5.5,0,0,0,.5-.5A.5.5,0,0,0,23.4,7Z"/><path class="cls-1" d="M23.4,13.94H.5a.5.5,0,0,0-.5.5.5.5,0,0,0,.5.5H23.4a.5.5,0,0,0,.5-.5A.5.5,0,0,0,23.4,13.94Z"/></g></g></svg>