<?xml version="1.0" encoding="utf-8"?>
<!-- Generator: Adobe Illustrator 23.1.1, SVG Export Plug-In . SVG Version: 6.00 Build 0)  -->
<svg version="1.1" id="Capa_1" xmlns="http://www.w3.org/2000/svg" xmlns:xlink="http://www.w3.org/1999/xlink" x="0px" y="0px"
	 viewBox="0 0 25 23" style="enable-background:new 0 0 25 23;" xml:space="preserve">
<style type="text/css">
	.st0{fill:#008BFC;}
</style>
<path class="st0" d="M23.8,4.57c-0.8,0.36-1.67,0.6-2.58,0.71c0.93-0.56,1.64-1.43,1.97-2.48c-0.87,0.51-1.83,0.89-2.85,1.09
	c-0.82-0.87-1.99-1.42-3.28-1.42c-2.9,0-5.03,2.7-4.37,5.51C8.97,7.79,5.66,6.01,3.44,3.29C2.27,5.31,2.83,7.95,4.83,9.28
	C4.1,9.26,3.41,9.06,2.8,8.72c-0.05,2.08,1.44,4.02,3.6,4.46c-0.63,0.17-1.32,0.21-2.03,0.08c0.57,1.78,2.23,3.08,4.19,3.12
	c-1.89,1.48-4.26,2.14-6.65,1.86c1.99,1.27,4.35,2.02,6.88,2.02c8.33,0,13.04-7.04,12.76-13.35C22.44,6.26,23.2,5.47,23.8,4.57z"/>
</svg>
