<?xml version="1.0" encoding="utf-8"?>
<!-- Generator: Adobe Illustrator 13.0.0, SVG Export Plug-In . SVG Version: 6.00 Build 14948)  -->
<!DOCTYPE svg PUBLIC "-//W3C//DTD SVG 1.1//EN" "http://www.w3.org/Graphics/SVG/1.1/DTD/svg11.dtd">
<svg version="1.1" id="Layer_1" xmlns="http://www.w3.org/2000/svg" xmlns:xlink="http://www.w3.org/1999/xlink" x="0px" y="0px"
	 width="192.559px" height="63.523px" viewBox="0 0 192.559 63.523" enable-background="new 0 0 192.559 63.523"
	 xml:space="preserve">
<path fill="#FFFFFF" d="M31.76,0C14.218,0,0,14.219,0,31.76s14.218,31.764,31.76,31.764S63.52,49.302,63.52,31.76S49.302,0,31.76,0z
	 M52.871,52.872c-2.743,2.74-5.936,4.895-9.492,6.397c-3.677,1.557-7.587,2.346-11.619,2.346c-4.031,0-7.941-0.789-11.619-2.346
	c-3.557-1.504-6.749-3.657-9.491-6.397c-2.742-2.745-4.896-5.937-6.398-9.493C2.694,39.7,1.906,35.794,1.906,31.76
	c0-4.031,0.788-7.94,2.346-11.618c1.503-3.558,3.656-6.749,6.398-9.491c2.743-2.742,5.936-4.896,9.491-6.398
	c3.678-1.557,7.588-2.346,11.619-2.346c4.032,0,7.942,0.789,11.619,2.346c3.557,1.504,6.749,3.656,9.492,6.398
	c2.741,2.742,4.896,5.935,6.396,9.491c1.558,3.678,2.346,7.587,2.346,11.618c0,4.033-0.788,7.939-2.346,11.618
	C57.767,46.936,55.613,50.127,52.871,52.872z M31.76,3.686c-15.481,0-28.075,12.595-28.075,28.074
	c0,15.481,12.594,28.074,28.075,28.074c15.479,0,28.074-12.593,28.074-28.074C59.834,16.28,47.24,3.686,31.76,3.686z M49.545,38.621
	h-9.544l-1.793,1.792v3.924h2.446c1.746,0,3.177,1.431,3.177,3.178c0,1.744-1.432,3.179-3.177,3.179H22.868
	c-1.746,0-3.177-1.435-3.177-3.179c0-1.747,1.431-3.178,3.177-3.178h4.127v-3.924l-1.792-1.792h-11.23
	c-3.492,0-6.351-2.856-6.351-6.353c0-3.285,2.53-6.013,5.737-6.32c-0.012-0.179-0.021-0.359-0.021-0.541
	c0-3.506,2.844-6.353,6.354-6.353c0.509,0,1.002,0.063,1.479,0.176c1.431-4.484,5.63-7.73,10.589-7.73
	c4.951,0,9.144,3.234,10.582,7.707c2.849,0.627,4.98,3.164,4.98,6.2c0,0.174-0.007,0.342-0.021,0.51h2.243
	c3.496,0,6.354,2.858,6.354,6.353C55.899,35.764,53.041,38.621,49.545,38.621z M36.239,30.839h1.448v3.607l-3.69,3.691
	c-0.181,0.178-0.278,0.422-0.278,0.674v7.878c0,0.523,0.426,0.951,0.953,0.951c0.525,0,0.953-0.428,0.953-0.951v-7.484l3.691-3.688
	c0.18-0.181,0.28-0.424,0.28-0.679v-4h1.683v-4.754H36.24L36.239,30.839L36.239,30.839z M32.563,20.648v-0.033l-3.004,5.374h2.126
	v7.793c0,0.598,0.427,1.082,0.953,1.082s0.953-0.484,0.953-1.082v-7.793h2.288L32.563,20.648z M27.503,34.287v-5.674
	c1.021-0.369,1.75-1.296,1.75-2.388c0-1.416-1.219-2.565-2.725-2.565c-1.504,0-2.724,1.149-2.724,2.565
	c0,1.105,0.749,2.041,1.792,2.399v6.06c0,0.25,0.099,0.493,0.279,0.671l3.69,3.69v5.829c0,0.528,0.428,0.954,0.953,0.954
	c0.526,0,0.953-0.426,0.953-0.954v-6.224c0-0.253-0.099-0.493-0.278-0.673L27.503,34.287z"/>
</svg>
